# xmcd CD database file
#
# Track frame offsets:
#	150
#	12865
#	28392
#	41073
#	54753
#	69738
#	80895
#	96121
#	112521
#	125439
#	138606
#	157411
#	167643
#	181849
#
# Disc length: 2582 seconds
#
# Revision: 0
# Processed by: cddbd v1.5.2PL0 Copyright (c) Steve Scherf et al.
# Submitted via: CDex 1.51
#
DISCID=bd0a140e
DTITLE=Dave Peabody - Right Now Blues
DYEAR=2015
DGENRE=Blues
TTITLE0=Got The Blues, Can`t Be Satisfied
TTITLE1=Evil Hearted Woman Blues
TTITLE2=Dark Side Of Town
TTITLE3=Muddy Water
TTITLE4=Where Is The Gambling Man?
TTITLE5=Ducks Yas,Yas,Yas
TTITLE6=Untitled Blues
TTITLE7=Highway 61
TTITLE8=Right Now Blues
TTITLE9=Rhythm Dance
TTITLE10=Shady Lane Blues
TTITLE11=West Indies Blues
TTITLE12=You Can`t Blame Me
TTITLE13=I`ll See You In My Dreams
EXTD=YEAR: 2015
EXTT0=
EXTT1=
EXTT2=
EXTT3=
EXTT4=
EXTT5=
EXTT6=
EXTT7=
EXTT8=
EXTT9=
EXTT10=
EXTT11=
EXTT12=
EXTT13=
PLAYORDER=
